<svg width="89" height="200" viewBox="0 0 89 200" fill="none" xmlns="http://www.w3.org/2000/svg">
<path d="M45.9095 128.604C44.9525 118.989 44.4855 109.786 44.426 102.795V99.8736C44.426 99.8553 44.426 99.837 44.426 99.8187C44.4627 96.0094 44.9068 87.8688 53.5784 85.2865C67.1903 81.2346 76.4709 88.899 76.9288 92.4519C78.8746 107.524 69.6764 125.348 68.0785 128.54C65.7069 133.274 64.196 137.042 64.0312 138.741C63.761 141.538 65.716 151.917 65.0247 157.842C64.0632 166.092 58.8254 178.303 57.1863 185.368C56.82 186.943 55.973 189.077 56.147 190.5C56.4629 193.069 58.0379 194.937 58.3218 196.448C58.7567 198.755 51.7241 199.671 50.1995 199.786C49.2746 199.854 47.1731 200.385 46.1017 199.465V195.335C46.468 194.191 46.8709 192.808 46.9991 191.329C47.2601 188.33 47.6997 185.437 47.7775 183.953C48.1255 177.621 45.7813 164.458 45.4058 155.008C45.1128 147.664 46.4406 143.365 46.6832 139.487C46.8938 136.3 46.4497 134.002 45.9095 128.604Z" fill="#FDCE8C"/>
<path d="M85.7424 64.9306C85.8889 66.4278 83.6867 68.7216 82.4276 69.6877C81.8507 70.1318 78.5359 73.1857 76.5122 70.3928C68.2571 58.9969 64.8233 46.5754 62.9507 44.9134C61.101 43.2743 60.7713 41.4979 60.3775 40.4815C59.558 36.8782 60.6935 34.9827 63.6283 34.4104C66.7554 33.8014 73.733 34.4836 78.9434 43.8924C82.3177 49.9956 85.225 59.6974 85.7424 64.9306Z" fill="#FDCE8C"/>
<path d="M86.8505 92.8458C86.6948 91.1975 82.8443 91.5775 82.0385 91.4814C80.8481 91.3395 80.4726 91.7424 79.8499 93.4089C78.1651 95.1854 77.6935 95.9775 77.3592 101.266C77.2722 102.69 77.2448 103.527 77.611 104.512C77.6523 104.626 78.5542 104.841 78.8152 103.468C79.2456 101.206 79.5661 100.68 79.8682 100.199C80.0056 99.9791 80.3444 100.057 80.3719 100.318C80.4955 101.472 81.1136 102.978 79.9049 105.611C78.9434 107.703 78.3207 109.164 79.1357 109.919C79.9552 110.674 85.28 106.856 86.4475 101.014C86.8871 98.8024 86.8321 95.9637 86.8505 92.8458Z" fill="#FDCE8C"/>
<path d="M81.8141 94.8328C82.6703 94.8878 86.6307 94.288 86.855 92.745C86.997 91.7744 86.7269 90.5977 87.0336 89.4348C89.213 81.1706 89.6983 74.4722 87.0473 66.7804C85.3121 61.7532 81.0083 61.3594 79.1815 62.0187C76.4939 62.9894 76.5305 65.3061 76.5168 66.8353C76.439 75.388 78.4993 80.4014 80.4726 92.0674C80.6237 92.9556 80.9579 94.7825 81.8141 94.8328Z" fill="#FDCE8C"/>
<path d="M42.9472 128.604C43.9041 118.989 44.3711 109.786 44.4306 102.795V99.8735C44.4306 99.8552 44.4306 99.8369 44.4306 99.8186C44.394 96.0093 43.9499 87.8687 35.2782 85.2864C21.6663 81.2345 12.3857 88.8989 11.9279 92.4518C9.98199 107.524 19.1802 125.348 20.7781 128.54C23.1497 133.274 24.6606 137.042 24.8255 138.74C25.0956 141.538 23.1406 151.917 23.8319 157.842C24.7934 166.092 30.0312 178.303 31.6703 185.368C32.0366 186.943 32.8836 189.076 32.7096 190.5C32.3937 193.069 30.8187 194.937 30.5348 196.448C30.0999 198.755 37.1325 199.671 38.6571 199.785C39.582 199.854 41.6835 200.385 42.7549 199.465V195.335C42.3886 194.191 41.9857 192.808 41.8575 191.329C41.5965 188.33 41.157 185.436 41.0791 183.953C40.7312 177.621 43.0754 164.458 43.4508 155.008C43.7438 147.664 42.4161 143.365 42.1734 139.487C41.9628 136.3 42.4069 134.002 42.9472 128.604Z" fill="#FDCE8C"/>
<path d="M3.11414 64.9305C2.96762 66.4277 5.16988 68.7215 6.42896 69.6876C7.00585 70.1317 10.3207 73.1855 12.3444 70.3927C20.5994 58.9968 24.0333 46.5753 25.9059 44.9133C27.7556 43.2742 28.0852 41.4978 28.479 40.4813C29.2985 36.8781 28.1631 34.9826 25.2283 34.4102C22.1012 33.8013 15.1235 34.4835 9.91319 43.8923C6.54342 49.9955 3.63608 59.6973 3.11414 64.9305Z" fill="#FDCE8C"/>
<path d="M2.00616 92.8455C2.16183 91.1973 6.01235 91.5773 6.81817 91.4812C8.00858 91.3392 8.38403 91.7421 9.00671 93.4087C10.6916 95.1852 11.1632 95.9772 11.4974 101.265C11.5844 102.689 11.6118 103.527 11.2456 104.512C11.2044 104.626 10.3024 104.841 10.0415 103.468C9.61107 101.206 9.29055 100.679 8.98837 100.199C8.85102 99.9788 8.51222 100.057 8.48475 100.318C8.36113 101.471 7.74304 102.978 8.95177 105.61C9.91325 107.703 10.5359 109.163 9.72095 109.919C8.9014 110.674 3.57659 106.856 2.40907 101.014C1.96954 98.8022 2.02448 95.9635 2.00616 92.8455Z" fill="#FDCE8C"/>
<path d="M7.04252 94.8326C6.18634 94.8875 2.22594 94.2877 2.00159 92.7448C1.85966 91.7741 2.12981 90.5975 1.82305 89.4345C-0.356313 81.1704 -0.841647 74.472 1.8093 66.7801C3.54455 61.7529 7.84834 61.3592 9.67516 62.0185C12.3627 62.9891 12.3261 65.3059 12.3398 66.8351C12.4177 75.3877 10.3574 80.4012 8.38402 92.0672C8.23293 92.9554 7.8987 94.7822 7.04252 94.8326Z" fill="#FDCE8C"/>
<path d="M57.5937 14.1548C56.7147 4.65439 52.8229 -0.00194137 44.4305 0.00721563C36.0382 -0.00194137 32.1464 4.65439 31.2674 14.1548C30.6996 20.2671 29.99 29.3829 29.5413 33.9751C32.6134 33.2654 43.7621 34.7626 44.4305 33.6409C45.099 34.7672 56.2522 33.2654 59.3198 33.9751C58.8711 29.3829 58.1615 20.2671 57.5937 14.1548Z" fill="#1B1616"/>
<path d="M75.5644 84.128C73.9253 79.3663 73.1057 77.654 73.1057 77.3243C73.1057 76.2347 73.1057 76.2347 73.1057 72.6817C73.1057 66.7297 69.9832 64.3397 71.4437 62.2016C77.0569 53.9877 70.8119 46.9552 68.6966 42.9993L66.911 34.3506C64.9514 33.1235 53.203 32.7847 51.8752 27.5469C51.367 25.5507 51.3624 19.2781 51.3624 19.2781L44.4306 19.2919L37.4987 19.2781C37.4987 19.2781 37.4941 25.5507 36.9859 27.5469C35.6582 32.7847 23.9097 33.1235 21.9501 34.3506L20.1645 42.9993C18.0493 46.9597 11.8042 53.9877 17.4174 62.2016C18.878 64.3397 15.7554 66.7297 15.7554 72.6817C15.7554 76.2392 15.7554 76.2392 15.7554 77.3243C15.7554 77.654 14.9359 79.3663 13.2968 84.128C11.6577 88.8942 11.8042 92.4517 11.9141 95.3224C12.2071 102.973 21.0619 97.8589 44.4306 99.8002C67.7992 97.8589 76.6586 102.969 76.947 95.3224C77.0569 92.4517 77.2035 88.8988 75.5644 84.128Z" fill="#FDCE8C"/>
<path d="M75.5644 84.1279C73.9253 79.3663 73.1057 77.654 73.1057 77.3243C73.1057 76.2346 73.1057 76.2346 73.1057 72.6817C73.1057 66.7297 69.9832 64.3397 71.4437 62.2015C77.057 53.9877 70.8119 46.9551 68.6966 42.9993L66.911 34.3505C65.9221 33.7278 62.4195 33.3341 59.036 32.4184C58.5095 45.403 47.0037 48.1547 44.568 48.0906H44.2887C41.8529 48.1547 30.3471 45.3984 29.8206 32.4184C26.4325 33.3341 22.9346 33.7278 21.9456 34.3505L20.16 42.9993C18.0447 46.9597 11.7996 53.9877 17.4129 62.2015C18.8734 64.3397 15.7509 66.7297 15.7509 72.6817C15.7509 76.2392 15.7509 76.2392 15.7509 77.3243C15.7509 77.654 14.9313 79.3663 13.2922 84.1279C12.5551 86.2661 12.1797 88.1616 12.0011 89.8602C15.3663 90.7988 20.7689 91.4536 26.5058 94.0862C33.7032 97.3919 40.3054 102.712 44.426 102.712C48.5467 102.712 55.1443 97.3919 62.3463 94.0862C68.0831 91.4536 73.4858 90.7988 76.851 89.8602C76.6724 88.1616 76.297 86.2707 75.5644 84.1279Z" fill="#4594F3"/>
<path d="M71.4437 62.2016C76.8509 54.2854 71.2514 47.4726 68.9438 43.4481C70.9721 47.1612 74.4609 55.4849 67.7809 57.8795C60.1439 60.6174 51.6325 55.1141 44.5679 54.9859H44.2886C37.224 55.1141 28.7125 60.6174 21.0756 57.8795C14.3956 55.4849 17.8798 47.1612 19.9127 43.4481C17.6051 47.4771 12.0056 54.2899 17.4128 62.2016C18.8734 64.3397 15.7508 66.7297 15.7508 72.6818C15.7508 74.1606 15.7508 75.0214 15.7508 75.6028C16.6574 68.6435 17.2388 63.1448 21.419 64.1062C30.0769 66.0933 34.2342 58.2732 44.2886 57.7284H44.5679C54.6223 58.2732 58.7795 66.0933 67.4375 64.1062C71.6177 63.1448 72.1991 68.6435 73.1057 75.6028C73.1057 75.0214 73.1057 74.1606 73.1057 72.6818C73.1057 66.7297 69.9785 64.3397 71.4437 62.2016Z" fill="#2D87F3"/>
<path opacity="0.1" d="M51.9942 27.9132C51.9484 27.7942 51.9073 27.6706 51.8752 27.5424C51.6051 26.4756 51.4769 24.1818 51.4174 22.2817C48.7939 24.4519 44.9846 27.666 44.4306 27.6889V27.7484V27.6935C43.8766 27.6706 40.0718 24.4519 37.4438 22.2863C37.3843 24.1863 37.2561 26.4802 36.9859 27.5469C36.9539 27.6751 36.9127 27.7942 36.8669 27.9178C38.6113 29.8591 41.2119 32.0247 44.4306 32.2353C47.6493 32.0247 50.2498 29.8591 51.9942 27.9132Z" fill="#231300"/>
<path d="M53.5417 14.1548C53.5417 9.6175 50.6252 5.41444 44.4305 5.33661C38.2312 5.40986 35.3193 9.6175 35.3193 14.1548C35.3193 17.5475 34.225 18.8615 34.866 21.6452C35.4979 24.3923 37.7093 26.4481 38.8127 27.2539C40.3831 28.3985 42.9242 29.186 44.4305 29.0303C45.9369 29.1906 48.4779 28.3985 50.0483 27.2539C51.1517 26.4481 53.3632 24.3923 53.995 21.6452C54.636 18.8615 53.5417 17.5475 53.5417 14.1548Z" fill="#FDCE8C"/>
<path d="M32.4761 17.3415C32.6043 14.7912 32.8149 12.3692 33.204 10.1853C33.726 7.28249 34.6142 5.12602 36.8027 3.16642C38.7074 1.46322 41.427 -0.0843084 44.7602 0.00726157C44.7647 0.00726157 44.7648 0.00726157 44.7693 0.00726157C48.1071 -0.0843084 50.5245 0.694036 52.2826 2.12253C54.668 3.83946 55.8768 6.58656 56.33 10.1853C56.4674 11.2841 56.5956 12.4425 56.7146 13.6374C55.57 14.0175 54.7367 14.283 53.5784 14.6218C53.3723 12.0075 48.6748 9.52596 44.7602 8.16615C42.1825 7.27334 40.0947 7.22297 39.5544 7.23671C36.8211 7.30997 35.388 12.4104 35.388 15.5329C35.388 16.2243 35.2049 16.6135 35.2735 17.1537C33.9503 17.2545 33.8038 17.2911 32.4761 17.3415Z" fill="#1B1616"/>
<path d="M53.3952 15.9358C53.4044 15.8305 53.4456 15.7344 53.5143 15.6611C53.7661 15.391 54.3842 14.8278 54.6818 15.5284C55.3823 17.172 53.2624 19.1362 53.18 19.475C53.1114 19.7726 53.3403 16.6638 53.3952 15.9358Z" fill="#FDCE8C"/>
<path d="M35.4612 15.9358C35.4521 15.8305 35.4109 15.7344 35.3422 15.6611C35.0904 15.391 34.4723 14.8278 34.1747 15.5284C33.4742 17.172 35.594 19.1362 35.6764 19.475C35.7497 19.7726 35.5162 16.6638 35.4612 15.9358Z" fill="#FDCE8C"/>
</svg>
