<svg width="96" height="200" viewBox="0 0 96 200" fill="none" xmlns="http://www.w3.org/2000/svg">
<path d="M74.8881 62.019C76.5556 51.8577 67.5152 46.9011 67.846 32.7525C64.6901 31.8291 59.6232 29.8171 57.9925 28.1036C55.6129 25.6046 55.3051 23.0965 55.1168 21.4336C54.8412 18.9943 49.4206 19.8258 48.0057 19.6925V19.6604H47.5831H47.5647H47.5464H47.1237V19.6925C45.7089 19.8304 40.2883 18.9943 40.0127 21.4336C39.8243 23.0965 39.5165 25.6046 37.137 28.1036C35.5016 29.8171 30.4394 31.8291 27.2835 32.7525C27.6142 46.8965 18.5738 51.8577 20.2414 62.019C20.7007 64.8166 13.0889 78.5012 15.1102 95.4842C15.2709 96.8485 32.6903 93.0633 37.0314 94.9008C40.1275 96.2146 42.9572 103.845 47.1237 104.355C47.1283 104.355 47.1329 104.355 47.1375 104.355C47.2799 104.373 47.4223 104.382 47.5647 104.382C47.7071 104.382 47.8541 104.373 47.9919 104.355C47.9965 104.355 48.0011 104.355 48.0057 104.355C52.1722 103.845 55.0019 96.2146 58.0981 94.9008C62.4346 93.0633 79.8539 96.8485 80.0193 95.4842C82.0405 78.5012 74.4287 64.8166 74.8881 62.019Z" fill="#FDCE8C"/>
<path d="M80.1205 85.6995C79.3717 84.9645 63.1468 85.7592 58.034 86.7469C48.7638 88.5292 50.0088 91.2119 49.4943 94.9466C49.2416 96.7979 47.5603 100.395 47.5603 104.382C47.5603 117.561 49.7469 131.43 49.5448 132.992C48.6628 139.827 49.949 141.302 49.7377 144.458C49.4851 148.293 48.0978 151.665 48.4056 158.932C48.796 168.285 51.3226 179.126 50.9643 185.392C50.8816 186.862 50.684 188.433 50.413 191.401C50.1466 194.281 49.0257 197.005 49.0533 198.034C49.1314 200.988 55.071 199.761 56.3802 199.674C57.9697 199.564 63.8542 198.852 63.3994 196.569C63.1008 195.076 61.5436 193.638 61.2128 191.102C61.0291 189.692 59.3615 186.623 59.6234 185.902C62.6139 177.629 67.5062 164.867 67.6256 156.649C67.7037 151.21 66.8539 146.635 67.373 143.19C68.2274 137.503 70.2854 135.146 72.4996 130.552C75.513 124.277 81.811 100.321 80.1205 85.6995Z" fill="#FDCE8C"/>
<path d="M87.1948 76.5534C86.4414 76.6315 85.0633 76.4064 81.5813 72.5568C77.8787 68.4593 71.4108 55.8541 68.604 48.7155C67.7542 46.5473 64.6167 44.1999 64.2722 43.5108C61.911 38.7931 65.4895 32.7478 65.6365 32.5181C66.3991 32.5686 67.0789 32.6053 67.8461 32.7523C79.6519 34.9895 91.9401 48.4582 92.4684 70.7377C92.5005 72.0194 94.2369 75.8046 87.1948 76.5534Z" fill="#FDCE8C"/>
<path d="M94.6137 95.245C94.5999 93.5178 93.1253 93.4305 92.1055 93.1917C90.6034 92.8379 88.2009 93.4489 87.2178 95.0613C86.5839 96.8988 84.8658 96.6002 83.8414 102.002C83.5658 103.454 83.258 104.855 83.1064 106.137C83.0881 106.261 85.3987 105.953 85.8811 104.579C87.057 101.272 87.5164 101.764 88.2376 100.624C88.1228 102.099 89.4228 103.95 87.7828 107.409C86.7492 109.591 85.3573 110.799 86.3174 111.723C87.2775 112.641 91.8023 109.839 94.0946 103.642C95.0409 101.074 95.6013 98.015 94.6137 95.245Z" fill="#FDCE8C"/>
<path d="M86.3496 95.98C86.9009 97.9783 90.7366 97.2571 91.6324 97.2065C92.5282 97.1514 94.6229 96.5634 94.6734 95.0153C94.701 94.0461 94.453 92.9298 94.4621 91.7446C94.577 77.9038 94.4116 72.5521 89.9557 67.4026C88.9864 66.2817 86.786 64.4304 84.9715 65.3032C82.4174 66.5297 79.9506 65.4319 80.0057 75.4048C80.0471 83.3014 84.7418 88.6439 86.097 94.0139C86.3129 94.8775 86.3496 95.98 86.3496 95.98Z" fill="#FDCE8C"/>
<path d="M15.0091 85.6995C15.7578 84.9645 31.9828 85.7592 37.0956 86.7469C46.3657 88.5292 45.1208 91.2119 45.6353 94.9466C45.888 96.7979 47.5693 100.395 47.5693 104.382C47.5693 117.561 45.3827 131.43 45.5848 132.992C46.4668 139.827 45.1806 141.302 45.3919 144.458C45.6445 148.293 47.0318 151.665 46.724 158.932C46.3336 168.285 43.807 179.126 44.1699 185.392C44.2526 186.862 44.4456 188.433 44.7212 191.401C44.9876 194.281 46.1085 197.005 46.0809 198.034C46.0028 200.988 40.0632 199.761 38.754 199.674C37.1645 199.564 31.28 198.852 31.7347 196.569C32.0333 195.076 33.5906 193.638 33.9214 191.102C34.1051 189.692 35.7726 186.623 35.5108 185.902C32.5203 177.629 27.628 164.867 27.5086 156.649C27.4305 151.21 28.2803 146.635 27.7612 143.19C26.9068 137.503 24.8488 135.146 22.6346 130.552C19.6165 124.277 13.3186 100.321 15.0091 85.6995Z" fill="#FDCE8C"/>
<path d="M7.93485 76.5534C8.68822 76.6315 10.0663 76.4064 13.5484 72.5568C17.2509 68.4593 23.7189 55.8541 26.5256 48.7155C27.3754 46.5473 30.5129 44.1999 30.8575 43.5108C33.2232 38.7931 29.6402 32.7478 29.4932 32.5181C28.7306 32.5686 28.0507 32.6053 27.2836 32.7523C15.4823 34.9895 3.18956 48.4582 2.66128 70.7377C2.62912 72.0194 0.892691 75.8046 7.93485 76.5534Z" fill="#FDCE8C"/>
<path d="M0.520554 95.2452C0.534336 93.5179 2.0089 93.4306 3.0287 93.1918C4.53544 92.8381 6.93336 93.449 7.91642 95.0614C8.55035 96.8989 10.2684 96.6003 11.2928 102.003C11.5684 103.454 11.8762 104.855 12.0278 106.137C12.0462 106.261 9.73551 105.953 9.25317 104.58C8.07718 101.272 7.61784 101.764 6.89663 100.624C7.00688 102.099 5.71144 103.95 7.3514 107.409C8.38498 109.591 9.77688 110.799 8.81679 111.723C7.85671 112.642 3.33191 109.839 1.03965 103.642C0.0887479 101.075 -0.467093 98.0152 0.520554 95.2452Z" fill="#FDCE8C"/>
<path d="M8.78004 95.9801C8.2288 97.9784 4.39305 97.2572 3.49727 97.2067C2.6015 97.1515 0.506771 96.5635 0.456241 95.0155C0.428678 94.0462 0.676749 92.9299 0.667561 91.7447C0.552719 77.9039 0.718068 72.5522 5.17856 67.4027C6.14783 66.2818 8.34824 64.4305 10.1628 65.3033C12.7169 66.5299 15.1837 65.432 15.1286 75.4049C15.0872 83.3015 10.3924 88.644 9.03729 94.014C8.82138 94.8777 8.78004 95.9801 8.78004 95.9801Z" fill="#FDCE8C"/>
<path d="M60.0183 8.04288C59.8667 7.31248 60.1056 6.66017 59.8253 5.94815C59.614 5.40609 58.9663 4.98347 58.6264 4.51951C58.2084 3.9407 58.0706 3.47214 57.5974 2.9163C57.0783 2.30534 56.403 2.19968 55.6956 1.84597C54.7125 1.34984 54.3037 0.830755 53.2058 0.619445C51.3224 0.256542 49.6089 -0.0374557 47.629 0.00388767H47.5004C45.5205 -0.0374557 43.8025 0.256542 41.9237 0.619445C40.8258 0.830755 40.4215 1.34525 39.4339 1.84597C38.7264 2.20427 38.0512 2.30534 37.5321 2.9163C37.0589 3.47214 36.9257 3.9407 36.5031 4.51951C36.1677 4.98347 35.52 5.40609 35.3041 5.94815C35.0239 6.66017 35.2582 7.31248 35.1112 8.04288C34.9688 8.73194 34.5875 9.4164 34.6656 10.133C34.7437 10.8404 35.1985 11.4514 35.0652 12.2186C34.932 12.9811 35.1571 13.785 35.5798 14.5062C36.1448 15.4755 35.6854 15.9119 36.0759 16.9363C36.5352 18.1353 37.1738 19.3067 38.1017 20.3173C39.1445 21.4473 40.5777 22.3799 42.2728 22.7428L47.4958 22.9541H47.6245L52.8475 22.7428C54.5472 22.3799 55.9758 21.4519 57.0186 20.3173C57.9465 19.3113 58.5896 18.1399 59.0444 16.9363C59.4349 15.9119 58.9709 15.4755 59.5405 14.5062C59.9632 13.785 60.1882 12.9811 60.055 12.2186C59.9218 11.4468 60.3766 10.8404 60.4547 10.133C60.542 9.4164 60.1561 8.73194 60.0183 8.04288Z" fill="#1B1616"/>
<path d="M57.3496 14.3545C57.3496 14.3545 57.9973 13.0086 58.4429 13.9687C59.2652 15.7418 57.6436 18.0938 57.6115 18.4751C57.5839 18.8564 57.3496 14.3545 57.3496 14.3545Z" fill="#FDCE8C"/>
<path d="M37.785 14.3545C37.785 14.3545 37.1373 13.0086 36.6917 13.9687C35.8695 15.7418 37.491 18.0938 37.5232 18.4751C37.5508 18.8564 37.785 14.3545 37.785 14.3545Z" fill="#FDCE8C"/>
<path opacity="0.1" d="M55.1354 21.608C53.5276 22.095 51.3364 22.7197 50.8862 23.0321C50.0548 23.6109 48.4102 24.1346 47.689 24.1851V24.1713C47.6477 24.1805 47.6155 24.1851 47.5788 24.1897C47.5742 24.1897 47.5696 24.1897 47.565 24.1897C47.5604 24.1897 47.5558 24.1897 47.5512 24.1897C47.5145 24.1851 47.4823 24.1805 47.4409 24.1713V24.1851C46.7197 24.1346 45.0752 23.6063 44.2437 23.0321C43.7936 22.7197 41.6024 22.095 39.9946 21.608C39.8567 22.7886 40.3161 23.0045 39.3744 24.6766C40.408 27.465 44.2483 30.1937 47.5512 30.1937C47.5558 30.1937 47.5604 30.1937 47.565 30.1937C47.5696 30.1937 47.5742 30.1937 47.5788 30.1937C50.8817 30.1937 54.722 27.465 55.7556 24.6766C54.8139 23.0045 55.2732 22.7886 55.1354 21.608Z" fill="#231300"/>
<path d="M56.7984 13.0408C55.9439 11.116 56.2058 10.0043 55.8567 8.87886C55.4938 7.70746 55.2273 7.2389 54.621 6.96328C53.4587 6.435 52.0347 7.07812 47.6293 6.99084H47.5007C43.0953 7.07812 41.6713 6.435 40.5091 6.96328C39.9027 7.2389 39.6363 7.71206 39.2734 8.87886C38.9243 10.0043 39.1861 11.116 38.3317 13.0408C36.0991 18.0709 37.5324 20.1886 38.3317 22.6784C39.0805 25.0028 41.9056 28.494 47.5007 28.494C47.5099 28.494 47.6202 28.494 47.6293 28.494C53.2245 28.494 56.0496 25.0028 56.7984 22.6784C57.5977 20.184 59.0309 18.0663 56.7984 13.0408Z" fill="#FDCE8C"/>
<path d="M80.3408 88.4604C80.1111 78.3037 76.9828 69.9432 75.5634 65.3449C75.5634 65.3403 75.5588 65.3357 75.5588 65.3357C75.4439 64.9544 75.3337 64.5961 75.2418 64.2699C75.2372 64.2561 75.2326 64.247 75.2326 64.2332C75.2234 64.2056 75.2188 64.1735 75.2096 64.1459C75.2004 64.1091 75.1912 64.0724 75.1775 64.0311C75.1729 64.0173 75.1683 64.0035 75.1683 63.9897C75.1499 63.9162 75.1315 63.8473 75.1132 63.7784C75.104 63.7325 75.0948 63.6911 75.081 63.6498C75.0672 63.5901 75.0534 63.5349 75.0397 63.4752C75.0305 63.4385 75.0213 63.3971 75.0121 63.3604C74.9983 63.3053 74.9891 63.2455 74.9753 63.195C74.9753 63.1858 74.9708 63.1766 74.9708 63.1674C74.9616 63.1169 74.9524 63.0664 74.9432 63.0204C74.9432 63.0113 74.9386 62.9975 74.9386 62.9883C74.9294 62.9378 74.9202 62.8918 74.9156 62.8413C74.911 62.8137 74.9065 62.7862 74.9065 62.7586C74.9019 62.7081 74.8927 62.6575 74.8881 62.6116C74.8835 62.584 74.8789 62.5519 74.8789 62.5243C74.8743 62.4784 74.8743 62.437 74.8743 62.3957C74.8743 62.3589 74.8697 62.3176 74.8697 62.2809C74.8697 62.2717 74.8697 62.2579 74.8697 62.2487C74.8697 62.166 74.8789 62.0879 74.8881 62.0144C74.9386 61.6929 74.9799 61.3805 75.0121 61.0727C75.0213 60.9625 75.0259 60.8568 75.0351 60.7466C75.0534 60.549 75.0718 60.3469 75.0764 60.154C75.081 60.0897 75.0764 60.0253 75.0764 59.961C75.0764 59.9059 75.0764 59.8554 75.0764 59.8003C75.081 59.6211 75.0856 59.4374 75.081 59.2628C75.081 59.249 75.081 59.2398 75.081 59.226C75.0764 59.1112 75.0718 59.0009 75.0626 58.8861C75.0534 58.7207 75.0488 58.5554 75.0397 58.3946C75.0351 58.3349 75.0259 58.2797 75.0213 58.2246C75.0121 58.1557 75.0075 58.0822 74.9983 58.0133C74.98 57.8571 74.9662 57.7009 74.9478 57.5493C74.9294 57.4161 74.9065 57.2829 74.8835 57.1497C74.8605 57.0073 74.8375 56.8603 74.81 56.7179C74.7962 56.6398 74.7778 56.5663 74.7595 56.4882C74.7503 56.4331 74.7365 56.3779 74.7227 56.3228C74.6905 56.185 74.663 56.0426 74.6308 55.9048C74.5987 55.7716 74.5619 55.6429 74.5252 55.5097C74.4884 55.3719 74.4563 55.2387 74.4149 55.1009C74.3965 55.032 74.3736 54.9631 74.3506 54.8942C74.3322 54.8299 74.3093 54.761 74.2909 54.692C74.2495 54.5634 74.2128 54.4348 74.1669 54.3016C74.1209 54.1592 74.0658 54.0122 74.0153 53.8698C73.9739 53.7503 73.9326 53.6355 73.8912 53.5161C73.8361 53.3691 73.7764 53.2175 73.7213 53.0705C73.6799 52.9602 73.634 52.8454 73.5881 52.7351C73.5238 52.5789 73.4594 52.4273 73.3951 52.2712C73.3492 52.1655 73.3078 52.0599 73.2619 51.9542C73.193 51.7934 73.1195 51.628 73.0506 51.4673C73.0092 51.3708 72.9679 51.2743 72.922 51.1779C72.8393 50.9941 72.752 50.8058 72.6693 50.622C72.6372 50.5531 72.6096 50.4842 72.5774 50.4153C72.4626 50.1672 72.3477 49.9192 72.2283 49.6711C72.2237 49.6619 72.2191 49.6527 72.2145 49.6436C72.063 49.3266 71.9159 49.005 71.7597 48.6789C71.4336 48.123 71.1442 47.6085 70.9145 47.1492C70.2255 45.7527 69.4813 43.6396 68.8749 41.3289V41.3244C68.7784 40.9706 68.682 40.6077 68.5947 40.2356C68.5947 40.2265 68.5901 40.2219 68.5901 40.2127C68.5396 40.0014 68.4936 39.7855 68.4431 39.565C68.4063 39.3858 68.3696 39.2021 68.3329 39.0183C68.3145 38.9172 68.2915 38.8254 68.2731 38.7243C67.8505 36.6066 67.5979 34.4843 67.6438 32.6928C67.6438 32.6928 67.6438 32.6928 67.6438 32.6882C65.9717 32.1875 63.8126 31.4019 61.9108 30.5245C60.8221 40.7639 58.9479 44.811 47.5463 44.9534H47.4177C36.0161 44.8156 34.2567 40.7639 33.1726 30.5245C31.2708 31.4019 29.1163 32.1875 27.4396 32.6882V32.6928C27.4856 34.4797 27.2329 36.6066 26.8103 38.7243C26.7919 38.8254 26.7736 38.9218 26.7506 39.0183C26.7138 39.2021 26.6771 39.3858 26.6403 39.565C26.5944 39.7809 26.5439 39.9968 26.4933 40.2127C26.4933 40.2219 26.4887 40.2265 26.4887 40.2356C26.4015 40.6031 26.3096 40.966 26.2085 41.3244V41.3289C25.6022 43.6396 24.858 45.7527 24.1689 47.1492C23.9438 47.6085 23.6498 48.1184 23.3237 48.6789C23.1721 49.0004 23.0205 49.3266 22.8689 49.6436C22.8643 49.6527 22.8597 49.6619 22.8551 49.6711C22.7403 49.9192 22.6208 50.1672 22.506 50.4153C22.4738 50.4842 22.4417 50.5531 22.4141 50.622C22.3268 50.8058 22.2442 50.9941 22.1615 51.1779C22.1155 51.2743 22.0742 51.3708 22.0328 51.4673C21.9593 51.628 21.8904 51.7934 21.8215 51.9542C21.7756 52.0599 21.7342 52.1655 21.6883 52.2712C21.624 52.4273 21.5597 52.5789 21.4954 52.7351C21.4494 52.8454 21.4081 52.9602 21.3622 53.0705C21.3025 53.2175 21.2473 53.3691 21.1922 53.5161C21.1509 53.6309 21.1095 53.7503 21.0682 53.8698C21.0176 54.0122 20.9671 54.1592 20.9166 54.3016C20.8752 54.4302 20.8339 54.5588 20.7926 54.692C20.7696 54.761 20.7512 54.8253 20.7328 54.8942C20.7145 54.9631 20.6869 55.032 20.6685 55.1009C20.6318 55.2341 20.595 55.3719 20.5583 55.5097C20.5215 55.6429 20.4848 55.7716 20.4526 55.9048C20.4204 56.0426 20.3929 56.185 20.3607 56.3228C20.347 56.3779 20.3378 56.4331 20.324 56.4882C20.3056 56.5663 20.2872 56.6398 20.2735 56.7179C20.2459 56.8603 20.2229 57.0073 20.1999 57.1497C20.177 57.2829 20.154 57.4161 20.1356 57.5493C20.1173 57.7009 20.0989 57.8571 20.0851 58.0133C20.0759 58.0822 20.0713 58.1557 20.0621 58.2246C20.0575 58.2797 20.0484 58.3395 20.0438 58.3946C20.03 58.5554 20.0254 58.7207 20.0208 58.8861C20.0162 59.0009 20.007 59.1112 20.0024 59.226C20.0024 59.2398 20.0024 59.249 20.0024 59.2628C19.9978 59.4374 20.0024 59.6211 20.007 59.8003C20.007 59.8554 20.007 59.9105 20.007 59.961C20.007 60.0253 20.007 60.0897 20.007 60.154C20.0162 60.3469 20.0346 60.549 20.0483 60.7466C20.0575 60.8568 20.0621 60.9625 20.0713 61.0727C20.1035 61.3805 20.1448 61.6975 20.1953 62.0144C20.2045 62.0833 20.2137 62.166 20.2137 62.2487C20.2137 62.2579 20.2137 62.2717 20.2137 62.2809C20.2137 62.3176 20.2137 62.3589 20.2091 62.3957C20.2091 62.437 20.2091 62.4784 20.2045 62.5243C20.2045 62.5519 20.1999 62.5794 20.1953 62.6116C20.1908 62.6575 20.1862 62.7081 20.177 62.7586C20.1724 62.7862 20.1724 62.8137 20.1678 62.8413C20.1586 62.8872 20.154 62.9378 20.1448 62.9883C20.1448 62.9975 20.1402 63.0113 20.1402 63.0204C20.131 63.071 20.1219 63.1169 20.1127 63.1674C20.1127 63.1766 20.1081 63.1858 20.1081 63.195C20.0989 63.2501 20.0851 63.3053 20.0713 63.3604C20.0621 63.3971 20.053 63.4339 20.0438 63.4752C20.03 63.5303 20.0162 63.5901 20.0024 63.6498C19.9932 63.6911 19.984 63.7325 19.9703 63.7784C19.9519 63.8473 19.9335 63.9208 19.9151 63.9897C19.9105 64.0035 19.9105 64.0173 19.9059 64.0311C19.8968 64.0678 19.8876 64.1046 19.8738 64.1459C19.8646 64.1735 19.86 64.201 19.8508 64.2332C19.8462 64.247 19.8417 64.2561 19.8417 64.2699C19.7498 64.5961 19.6441 64.9544 19.5247 65.3357L19.5201 65.3449C18.1006 69.9432 14.9723 78.3083 14.738 88.4604C14.7196 89.2505 14.7151 90.0452 14.7334 90.8537C16.0197 92.6912 17.3748 94.2715 18.7759 95.6358C23.4799 99.9171 26.7873 103.165 44.5512 103.165C46.3336 102.848 48.6901 102.848 50.4725 103.165C68.2364 103.165 71.5393 99.9217 76.2478 95.6358C77.6489 94.2715 79.004 92.6912 80.2903 90.8537C80.3638 90.0452 80.3592 89.2505 80.3408 88.4604Z" fill="#4594F3"/>
<path d="M80.3409 88.5339C78.5723 88.8968 74.7733 90.6286 71.0983 93.0908C64.8739 97.2665 57.8133 101.534 47.5648 101.534C37.3162 101.534 30.2557 97.2665 24.0312 93.0908C20.3562 90.6286 16.5572 88.8922 14.7887 88.5339C14.5498 93.4446 15.0321 99.1086 15.882 104.699C18.753 105.645 23.6867 106.886 31.1468 107.543C38.2855 108.172 45.3644 107.184 47.5418 106.835C47.5556 106.041 47.5739 106.041 47.5877 106.835C49.7651 107.184 56.8441 108.172 63.9827 107.543C71.4429 106.886 76.3765 105.645 79.2476 104.699C80.102 99.1132 80.5797 93.4446 80.3409 88.5339Z" fill="#666666"/>
</svg>
